# xmcd CD database file
#
# Track frame offsets:
#	150
#	21382
#	40425
#	63402
#	83822
#	96060
#
# Disc length: 1562 seconds
#
# Revision: 2
# Processed by: cddbd v1.5.1PL0 Copyright (c) Steve Scherf et al.
# Submitted via: CDex 1.51
#
DISCID=48061806
DTITLE=???? - MINI BEST FROM TV
DYEAR=1993
DGENRE=New Age
TTITLE0=??????
TTITLE1=?????????
TTITLE2=?????
TTITLE3=????????????
TTITLE4=????
TTITLE5=????????
EXTD=YEAR: 1993
EXTT0=
EXTT1=
EXTT2=
EXTT3=
EXTT4=
EXTT5=
PLAYORDER=
